FFmpeg version SVN-r25716, Copyright (c) 2000-2010 the FFmpeg developers  built on Nov 10 2010 12:23:18 with gcc 4.1.2 20080704 (Red Hat 4.1.2-48)  configuration: --enable-libmp3lame --enable-shared --disable-mmx --arch=x86_64  libavutil     50.33. 0 / 50.33. 0  libavcore      0.12. 1 /  0.12. 1  libavcodec    52.94. 4 / 52.94. 4  libavformat   52.84. 0 / 52.84. 0  libavdevice   52. 2. 2 / 52. 2. 2  libavfilter    1.59. 0 /  1.59. 0  libswscale     0.12. 0 /  0.12. 0[mov,mp4,m4a,3gp,3g2,mj2 @ 0xb8694c0] multiple edit list entries, a/v desync might occur, patch welcomeSeems stream 0 codec frame rate differs from container frame rate: 600.00 (600/1) -> 15.00 (15/1)Input #0, mov,mp4,m4a,3gp,3g2,mj2, from '/RAID10/data/converted_video_files/11845.mov':  Duration: 00:00:07.46, start: 0.081667, bitrate: 5914 kb/s    Stream #0.0(eng): Video: svq3, yuvj420p, 400x400, 5911 kb/s, 15 fps, 15 tbr, 600 tbn, 600 tbc[buffer @ 0xb86c7e0] w:400 h:400 pixfmt:yuvj420p[ffsink @ 0xb871060] auto-inserting filter 'auto-inserted scaler 0' between the filter 'src' and the filter 'out'[scale @ 0xb871380] w:400 h:400 fmt:yuvj420p -> w:400 h:400 fmt:yuv420p flags:0x4Output #0, flv, to '/RAID10/data/converted_video_files/11845.flv':  Metadata:    encoder         : Lavf52.84.0    Stream #0.0(eng): Video: flv, yuv420p, 400x400, q=2-31, 600 kb/s, 1k tbn, 24 tbcStream mapping:  Stream #0.0 -> #0.0Press [q] to stop encodingframe=   53 fps=  0 q=31.0 size=     374kB time=3.50 bitrate= 874.8kbits/s    frame=  103 fps= 99 q=28.8 size=     553kB time=6.83 bitrate= 662.8kbits/s    frame=  112 fps= 93 q=30.3 Lsize=     584kB time=7.46 bitrate= 641.9kbits/s    video:583kB audio:0kB global headers:0kB muxing overhead 0.335615%